<?xml version="1.0" encoding="UTF-8" standalone="no"?>
<!-- Created with Inkscape (http://www.inkscape.org/) -->

<svg
   xmlns:dc="http://purl.org/dc/elements/1.1/"
   xmlns:cc="http://creativecommons.org/ns#"
   xmlns:rdf="http://www.w3.org/1999/02/22-rdf-syntax-ns#"
   xmlns:svg="http://www.w3.org/2000/svg"
   xmlns="http://www.w3.org/2000/svg"
   xmlns:sodipodi="http://sodipodi.sourceforge.net/DTD/sodipodi-0.dtd"
   xmlns:inkscape="http://www.inkscape.org/namespaces/inkscape"
   version="1.1"
   id="svg2"
   width="1280"
   height="1280"
   viewBox="0 0 1280 1280"
   sodipodi:docname="Budgie.svg"
   inkscape:version="0.92.4 (5da689c313, 2019-01-14)">
  <metadata
     id="metadata8">
    <rdf:RDF>
      <cc:Work
         rdf:about="">
        <dc:format>image/svg+xml</dc:format>
        <dc:type
           rdf:resource="http://purl.org/dc/dcmitype/StillImage" />
        <dc:title></dc:title>
        <cc:license
           rdf:resource="http://creativecommons.org/licenses/by/4.0/" />
      </cc:Work>
      <cc:License
         rdf:about="http://creativecommons.org/licenses/by/4.0/">
        <cc:permits
           rdf:resource="http://creativecommons.org/ns#Reproduction" />
        <cc:permits
           rdf:resource="http://creativecommons.org/ns#Distribution" />
        <cc:requires
           rdf:resource="http://creativecommons.org/ns#Notice" />
        <cc:requires
           rdf:resource="http://creativecommons.org/ns#Attribution" />
        <cc:permits
           rdf:resource="http://creativecommons.org/ns#DerivativeWorks" />
      </cc:License>
    </rdf:RDF>
  </metadata>
  <defs
     id="defs6">
    <inkscape:path-effect
       effect="spiro"
       id="path-effect849"
       is_visible="true" />
    <inkscape:path-effect
       effect="spiro"
       id="path-effect839"
       is_visible="true" />
    <inkscape:path-effect
       effect="spiro"
       id="path-effect827"
       is_visible="true" />
  </defs>
  <sodipodi:namedview
     pagecolor="#ffffff"
     bordercolor="#666666"
     borderopacity="1"
     objecttolerance="10"
     gridtolerance="10"
     guidetolerance="10"
     inkscape:pageopacity="0"
     inkscape:pageshadow="2"
     inkscape:window-width="1600"
     inkscape:window-height="837"
     id="namedview4"
     showgrid="false"
     showguides="true"
     inkscape:guide-bbox="true"
     inkscape:zoom="0.25"
     inkscape:cx="185.80389"
     inkscape:cy="826.7407"
     inkscape:window-x="-8"
     inkscape:window-y="-8"
     inkscape:window-maximized="1"
     inkscape:current-layer="svg2"
     scale-x="0.5" />
  <g
     id="g871">
    <circle
       r="639.5"
       cy="640.5"
       cx="639.5"
       id="path821"
       style="opacity:1;fill:#404552;fill-opacity:1;stroke-width:4.16612387" />
    <g
       id="g862">
      <path
         style="fill:#5294e2;fill-opacity:1;stroke-width:4.16612387"
         d="m 1068.5061,559.83093 60.1523,21.04017 -55.4808,31.49508 z"
         id="path831"
         inkscape:connector-curvature="0"
         sodipodi:nodetypes="cccc" />
      <path
         style="fill:#ffffff"
         d="m 49.625,127.125 c 3.29789,10.58038 11.721056,19.43184 22.125,23.25 4.716085,1.73076 9.819765,2.4668 14.813923,1.9233 4.994159,-0.54349 9.868987,-2.38774 13.845237,-5.45799 2.74306,-2.11805 5.01963,-4.77028 7.24785,-7.42462 8.79985,-10.48268 17.17846,-21.31816 26.16295,-31.64303 4.68861,-5.3881 9.58437,-10.674276 15.37957,-14.849238 C 158.64156,86.121223 170.16044,82.550665 181.75,81.5 c 8.85191,-0.802481 17.82599,-0.189566 26.5,1.75 14.17755,3.170196 27.90269,10.22705 36.75,21.75 6.87197,8.95023 10.44003,20.07426 12,31.25 2.82442,20.23438 -0.74883,41.43473 -10.75,59.25 -8.67774,15.45782 -22.1092,28.20381 -38,36.06066 -16.94282,8.66848 -35.96845,13.23094 -55,13.18934 -19.61854,-0.0429 -39.20777,-4.98353 -56.5,-14.25 C 84.597871,223.70527 73.758401,214.5728 65,203.75 c -8.247191,-10.1911 -14.722291,-22.08928 -17,-35 -2.048511,-11.61156 -0.652667,-23.51561 0.5,-35.25 0.190538,-1.93972 0.374862,-3.88401 0.754407,-5.79576 0.03516,-0.17712 0.07199,-0.35391 0.110485,-0.53033 l 0.260108,-0.0489 z"
         id="path825"
         inkscape:connector-curvature="0"
         inkscape:path-effect="#path-effect827"
         inkscape:original-d="m 49.625,127.125 c 0.0857,-0.0153 14.751,15.499 22.125,23.25 7.374,7.751 19.107109,-2.35746 28.65916,-3.53469 9.55206,-1.17722 4.8329,-4.95074 7.24785,-7.42462 2.41495,-2.47387 17.44296,-21.09635 26.16295,-31.64303 8.71998,-10.546672 10.25405,-9.900491 15.37957,-14.849238 C 154.32506,87.974674 170.90084,85.306807 181.75,81.5 c 10.84916,-3.806808 17.66767,1.165666 26.5,1.75 8.83233,0.584333 24.501,14.499 36.75,21.75 12.249,7.251 8.001,20.83233 12,31.25 3.999,10.41767 -7.16567,39.499 -10.75,59.25 -3.58433,19.751 -38,36.06066 -38,36.06066 0,0 -38.07988,13.03453 -55,13.18934 -18.9391,0.17328 -56.5,-14.25 -56.5,-14.25 0,0 -21.165667,-17.83433 -31.75,-26.75 -10.584333,-8.91567 -11.332333,-23.33433 -17,-35 -5.667667,-11.66567 0.334333,-23.501 0.5,-35.25 0.165667,-11.749 0.503938,-3.86484 0.754407,-5.79576 0.250469,-1.93092 0.07466,-0.35456 0.110485,-0.53033 2.739732,1.1483 0.260108,-0.0489 0.260108,-0.0489 z"
         sodipodi:nodetypes="csccssssssscscssssccc"
         transform="matrix(4.1661237,0,0,4.1661237,0,1.0000001)" />
      <circle
         style="opacity:1;fill:#404552;fill-opacity:1;stroke:none;stroke-width:4.16612387"
         id="path853"
         cx="882.69751"
         cy="517.59937"
         r="42.181999" />
      <path
         style="fill:#5294e2;fill-opacity:1;stroke:none;stroke-width:1px;stroke-linecap:butt;stroke-linejoin:miter;stroke-opacity:1"
         d="m 82.875,178.25 c 1.279099,0.57101 2.571213,1.11286 3.875,1.625 9.651941,3.79135 19.87497,5.928 30.125,7.5 8.00422,1.22757 16.27403,2.10911 24.125,0.125 3.57016,-0.90226 7.02871,-2.4136 9.875,-4.75 3.18448,-2.61401 5.52466,-6.2351 6.62474,-10.20546 1.10008,-3.97036 0.95889,-8.27142 -0.37474,-12.16954 -1.32609,-3.87608 -3.83304,-7.35011 -7.1361,-9.77339 -3.30307,-2.42328 -7.39254,-3.7748 -11.4889,-3.72661 -3.52531,0.0415 -7.00571,1.10222 -10.06969,2.84624 -3.06398,1.74402 -5.72083,4.15644 -7.93031,6.90376 -2.14296,2.66459 -3.88593,5.65448 -6.25,8.125 -3.16934,3.31205 -7.30292,5.53139 -11.5,7.375 -6.361114,2.79419 -13.044521,4.85385 -19.875,6.125 z"
         id="path847"
         inkscape:connector-curvature="0"
         inkscape:path-effect="#path-effect849"
         inkscape:original-d="m 82.875,178.25 c -0.01921,-6.38288 2.584333,1.08233 3.875,1.625 1.290667,0.54267 20.08433,4.999 30.125,7.5 10.04067,2.501 16.08433,0.0823 24.125,0.125 8.04067,0.0427 6.58433,-3.16767 9.875,-4.75 3.29067,-1.58233 4.16767,-14.91767 6.25,-22.375 2.08233,-7.45733 -12.41567,-9.001 -18.625,-13.5 -6.20933,-4.499 -11.999,6.499 -18,9.75 -6.001,3.251 -4.16567,5.41567 -6.25,8.125 -2.08433,2.70933 -8.91567,5.79067 -11.5,7.375 -4.357738,2.67152 -19.875,6.125 -19.875,6.125 z"
         sodipodi:nodetypes="sssssssssss"
         transform="matrix(4.1661237,0,0,4.1661237,0.52076544,2.0415337)" />
      <circle
         style="opacity:1;fill:#ffffff;fill-opacity:1;stroke:none;stroke-width:4.58273602"
         id="path855"
         cx="903.00732"
         cy="500.67444"
         r="14.32105" />
    </g>
  </g>
</svg>
